<svg viewBox="0 0 900 600" xmlns="http://www.w3.org/2000/svg" font-family="system-ui, Arial">
  <defs>
    <linearGradient id="hdr" x1="0%" y1="0%" x2="100%" y2="0%">
      <stop offset="0%" style="stop-color:#1e40af"/>
      <stop offset="100%" style="stop-color:#3b82f6"/>
    </linearGradient>
  </defs>
  <rect width="900" height="56" fill="url(#hdr)"/>
  <text x="30" y="36" fill="#fff" font-size="22" font-weight="bold">RiTech</text>
  <text x="120" y="36" fill="#ffffff99" font-size="13">Sistema de Exportación de Café y Cacao</text>
  <circle cx="850" cy="28" r="16" fill="#ffffff22"/>
  <text x="845" y="34" fill="#fff" font-size="14">OP</text>

  <rect x="0" y="56" width="200" height="544" fill="#1e293b"/>
  <text x="20" y="88" fill="#94a3b8" font-size="11" font-weight="600">MENÚ</text>
  <text x="24" y="120" fill="#64748b" font-size="13">👤 Usuarios</text>
  <rect x="10" y="130" width="180" height="34" rx="6" fill="#334155"/>
  <text x="24" y="152" fill="#fff" font-size="13">📦 Productos</text>
  <text x="24" y="188" fill="#64748b" font-size="13">📋 Lotes</text>
  <text x="24" y="218" fill="#64748b" font-size="13">🏢 Clientes</text>
  <text x="24" y="248" fill="#64748b" font-size="13">📄 Pedidos</text>

  <rect x="220" y="70" width="660" height="490" rx="10" fill="#f8fafc" stroke="#e2e8f0" stroke-width="1"/>
  <text x="250" y="105" fill="#1e293b" font-size="20" font-weight="bold">Registro de Productos</text>
  <text x="250" y="125" fill="#64748b" font-size="13">Catálogo de café y cacao para exportación</text>

  <rect x="250" y="145" width="300" height="400" rx="8" fill="#fff" stroke="#e2e8f0" stroke-width="1"/>
  <text x="270" y="175" fill="#374151" font-size="13" font-weight="600">Nombre del Producto</text>
  <rect x="270" y="185" width="260" height="36" rx="6" fill="#f8fafc" stroke="#cbd5e1" stroke-width="1"/>
  <text x="280" y="208" fill="#94a3b8" font-size="13">Ej: Café Arábica Supremo</text>

  <text x="270" y="240" fill="#374151" font-size="13" font-weight="600">Tipo</text>
  <rect x="270" y="250" width="120" height="32" rx="6" fill="#1e40af"/>
  <text x="330" y="271" text-anchor="middle" fill="#fff" font-size="12">☕ Café</text>
  <rect x="400" y="250" width="120" height="32" rx="6" fill="#e2e8f0"/>
  <text x="460" y="271" text-anchor="middle" fill="#64748b" font-size="12">🍫 Cacao</text>

  <text x="270" y="305" fill="#374151" font-size="13" font-weight="600">Variedad</text>
  <rect x="270" y="315" width="260" height="36" rx="6" fill="#f8fafc" stroke="#cbd5e1" stroke-width="1"/>
  <text x="280" y="338" fill="#94a3b8" font-size="13">Arábica · Typica · Bourbon</text>

  <text x="270" y="370" fill="#374151" font-size="13" font-weight="600">Origen Geográfico</text>
  <rect x="270" y="380" width="260" height="36" rx="6" fill="#f8fafc" stroke="#cbd5e1" stroke-width="1"/>
  <text x="280" y="403" fill="#94a3b8" font-size="13">Huila, Colombia</text>

  <text x="270" y="435" fill="#374151" font-size="13" font-weight="600">Certificaciones</text>
  <rect x="270" y="445" width="80" height="24" rx="12" fill="#dcfce7"/>
  <text x="310" y="462" text-anchor="middle" fill="#16a34a" font-size="10">Orgánico</text>
  <rect x="360" y="445" width="100" height="24" rx="12" fill="#dbeafe"/>
  <text x="410" y="462" text-anchor="middle" fill="#2563eb" font-size="10">Fair Trade</text>
  <rect x="470" y="445" width="60" height="24" rx="12" fill="#fef3c7"/>
  <text x="500" y="462" text-anchor="middle" fill="#d97706" font-size="10">+ Agregar</text>

  <rect x="270" y="485" width="260" height="38" rx="6" fill="#1e40af"/>
  <text x="400" y="509" text-anchor="middle" fill="#fff" font-size="13" font-weight="600">Guardar Producto</text>

  <rect x="580" y="145" width="270" height="400" rx="8" fill="#fff" stroke="#e2e8f0" stroke-width="1"/>
  <text x="600" y="175" fill="#374151" font-size="14" font-weight="600">Productos Registrados</text>
  <rect x="600" y="190" width="230" height="70" rx="6" fill="#f8fafc" stroke="#e2e8f0" stroke-width="1"/>
  <text x="615" y="212" fill="#374151" font-size="12" font-weight="600">☕ Café Arábica Supremo</text>
  <text x="615" y="228" fill="#64748b" font-size="10">Huila · Orgánico, Fair Trade</text>
  <rect x="790" y="198" width="50" height="18" rx="4" fill="#dcfce7"/>
  <text x="815" y="211" text-anchor="middle" fill="#16a34a" font-size="9">Activo</text>

  <rect x="600" y="270" width="230" height="70" rx="6" fill="#f8fafc" stroke="#e2e8f0" stroke-width="1"/>
  <text x="615" y="292" fill="#374151" font-size="12" font-weight="600">🍫 Cacao Criollo</text>
  <text x="615" y="308" fill="#64748b" font-size="10">Santander · Rainforest</text>
  <rect x="790" y="278" width="50" height="18" rx="4" fill="#dcfce7"/>
  <text x="815" y="291" text-anchor="middle" fill="#16a34a" font-size="9">Activo</text>

  <rect x="600" y="350" width="230" height="70" rx="6" fill="#f8fafc" stroke="#e2e8f0" stroke-width="1"/>
  <text x="615" y="372" fill="#374151" font-size="12" font-weight="600">☕ Café Robusta</text>
  <text x="615" y="388" fill="#64748b" font-size="10">Nariño · Orgánico</text>
  <rect x="790" y="358" width="50" height="18" rx="4" fill="#fef3c7"/>
  <text x="815" y="371" text-anchor="middle" fill="#d97706" font-size="9">Inactivo</text>

  <rect x="0" y="570" width="900" height="30" fill="#f1f5f9"/>
  <text x="450" y="590" text-anchor="middle" fill="#94a3b8" font-size="11">HU-06 "Registro de productos con variedad y origen" | Wireframe | RiTech Export System</text>
</svg>