<svg viewBox="0 0 900 600" xmlns="http://www.w3.org/2000/svg" font-family="system-ui, Arial">
  <defs>
    <linearGradient id="hdr" x1="0%" y1="0%" x2="100%" y2="0%">
      <stop offset="0%" style="stop-color:#1e40af"/>
      <stop offset="100%" style="stop-color:#3b82f6"/>
    </linearGradient>
  </defs>
  <rect width="900" height="56" fill="url(#hdr)"/>
  <text x="30" y="36" fill="#fff" font-size="22" font-weight="bold">RiTech</text>
  <text x="120" y="36" fill="#ffffff99" font-size="13">Sistema de Exportación de Café y Cacao</text>
  <circle cx="850" cy="28" r="16" fill="#ffffff22"/>
  <text x="845" y="34" fill="#fff" font-size="14">GR</text>

  <rect x="0" y="56" width="200" height="544" fill="#1e293b"/>
  <text x="20" y="88" fill="#94a3b8" font-size="11" font-weight="600">MENÚ</text>
  <rect x="10" y="100" width="180" height="34" rx="6" fill="#334155"/>
  <text x="24" y="122" fill="#fff" font-size="13">📄 Pedidos</text>
  <text x="24" y="158" fill="#64748b" font-size="13">📊 Facturación</text>
  <text x="24" y="188" fill="#64748b" font-size="13">📜 Documentos</text>

  <rect x="220" y="70" width="660" height="490" rx="10" fill="#f8fafc" stroke="#e2e8f0" stroke-width="1"/>
  <text x="250" y="105" fill="#1e293b" font-size="20" font-weight="bold">Estado de Facturación del Pedido</text>
  <text x="250" y="125" fill="#64748b" font-size="13">PED-2026-045 · Berliner Rösterei GmbH</text>

  <rect x="250" y="145" width="620" height="60" rx="8" fill="#fff" stroke="#e2e8f0" stroke-width="1"/>
  <rect x="280" y="165" width="12" height="12" rx="6" fill="#16a34a"/>
  <text x="300" y="176" fill="#16a34a" font-size="11">Pedido Creado</text>
  <line x1="420" y1="170" x2="460" y2="170" stroke="#16a34a" stroke-width="2"/>
  <rect x="470" y="165" width="12" height="12" rx="6" fill="#16a34a"/>
  <text x="490" y="176" fill="#16a34a" font-size="11">Aprobado</text>
  <line x1="570" y1="170" x2="610" y2="170" stroke="#16a34a" stroke-width="2"/>
  <rect x="620" y="165" width="12" height="12" rx="6" fill="#f59e0b"/>
  <text x="640" y="176" fill="#f59e0b" font-size="11">Facturado</text>
  <line x1="720" y1="170" x2="760" y2="170" stroke="#e2e8f0" stroke-width="2"/>
  <rect x="770" y="165" width="12" height="12" rx="6" fill="#e2e8f0"/>
  <text x="790" y="176" fill="#94a3b8" font-size="11">Pagado</text>

  <rect x="250" y="220" width="300" height="330" rx="8" fill="#fff" stroke="#e2e8f0" stroke-width="1"/>
  <text x="270" y="250" fill="#374151" font-size="14" font-weight="600">Detalle de Facturación</text>
  <text x="270" y="280" fill="#64748b" font-size="12">Número de Factura:</text>
  <text x="420" y="280" fill="#1e293b" font-size="12" font-weight="600">FAC-2026-001</text>
  <text x="270" y="305" fill="#64748b" font-size="12">Fecha de Emisión:</text>
  <text x="420" y="305" fill="#1e293b" font-size="12">20/07/2026</text>
  <text x="270" y="330" fill="#64748b" font-size="12">Monto Total:</text>
  <text x="420" y="330" fill="#1e293b" font-size="16" font-weight="600">€ 25,000</text>
  <text x="270" y="355" fill="#64748b" font-size="12">Método de Pago:</text>
  <text x="420" y="355" fill="#1e293b" font-size="12">Transferencia Bancaria</text>
  <text x="270" y="380" fill="#64748b" font-size="12">IBAN Destino:</text>
  <text x="420" y="380" fill="#1e293b" font-size="12">DE89 3704 0044 0532 0130 00</text>
  <text x="270" y="405" fill="#64748b" font-size="12">Estado Pago:</text>
  <rect x="420" y="395" width="80" height="22" rx="4" fill="#fef3c7"/>
  <text x="460" y="411" text-anchor="middle" fill="#d97706" font-size="11" font-weight="600">Pendiente</text>
  <text x="270" y="430" fill="#64748b" font-size="12">Vencimiento:</text>
  <text x="420" y="430" fill="#ef4444" font-size="12" font-weight="600">19/08/2026</text>
  <text x="270" y="455" fill="#64748b" font-size="12">Días restantes:</text>
  <text x="420" y="455" fill="#d97706" font-size="12" font-weight="600">20 días</text>

  <rect x="580" y="220" width="270" height="330" rx="8" fill="#fff" stroke="#e2e8f0" stroke-width="1"/>
  <text x="600" y="250" fill="#374151" font-size="14" font-weight="600">Documentos Vinculados</text>
  <rect x="600" y="265" width="230" height="50" rx="6" fill="#dcfce7" stroke="#86efac" stroke-width="1"/>
  <text x="615" y="287" fill="#16a34a" font-size="12" font-weight="600">📄 Proforma Invoice</text>
  <text x="615" y="303" fill="#64748b" font-size="10">PI-2026-045 · Generada 15/07/2026</text>

  <rect x="600" y="325" width="230" height="50" rx="6" fill="#dcfce7" stroke="#86efac" stroke-width="1"/>
  <text x="615" y="347" fill="#16a34a" font-size="12" font-weight="600">📄 Commercial Invoice</text>
  <text x="615" y="363" fill="#64748b" font-size="10">CI-2026-045 · Generada 20/07/2026</text>

  <rect x="600" y="385" width="230" height="50" rx="6" fill="#dcfce7" stroke="#86efac" stroke-width="1"/>
  <text x="615" y="407" fill="#16a34a" font-size="12" font-weight="600">📄 Packing List</text>
  <text x="615" y="423" fill="#64748b" font-size="10">PL-2026-045 · Generado 20/07/2026</text>

  <rect x="600" y="445" width="230" height="50" rx="6" fill="#fef3c7" stroke="#fcd34d" stroke-width="1"/>
  <text x="615" y="467" fill="#d97706" font-size="12" font-weight="600">⚠️ Certificado Fitossanitario</text>
  <text x="615" y="483" fill="#ef4444" font-size="10">Pendiente de generar</text>

  <rect x="0" y="570" width="900" height="30" fill="#f1f5f9"/>
  <text x="450" y="590" text-anchor="middle" fill="#94a3b8" font-size="11">HU-18 "Estado de facturación del pedido" | Wireframe | RiTech Export System</text>
</svg>