<svg viewBox="0 0 900 600" xmlns="http://www.w3.org/2000/svg" font-family="system-ui, Arial">
  <defs>
    <linearGradient id="hdr" x1="0%" y1="0%" x2="100%" y2="0%">
      <stop offset="0%" style="stop-color:#1e40af"/>
      <stop offset="100%" style="stop-color:#3b82f6"/>
    </linearGradient>
  </defs>
  <rect width="900" height="56" fill="url(#hdr)"/>
  <text x="30" y="36" fill="#fff" font-size="22" font-weight="bold">RiTech</text>
  <text x="120" y="36" fill="#ffffff99" font-size="13">Sistema de Exportación de Café y Cacao</text>
  <circle cx="850" cy="28" r="16" fill="#ffffff22"/>
  <text x="845" y="34" fill="#fff" font-size="14">OP</text>

  <rect x="0" y="56" width="200" height="544" fill="#1e293b"/>
  <text x="20" y="88" fill="#94a3b8" font-size="11" font-weight="600">MENÚ</text>
  <text x="24" y="120" fill="#64748b" font-size="13">👤 Usuarios</text>
  <text x="24" y="150" fill="#64748b" font-size="13">📦 Productos</text>
  <text x="24" y="180" fill="#64748b" font-size="13">📋 Lotes</text>
  <rect x="10" y="190" width="180" height="34" rx="6" fill="#334155"/>
  <text x="24" y="212" fill="#fff" font-size="13">🔬 Análisis SCA</text>
  <text x="24" y="248" fill="#64748b" font-size="13">🏢 Clientes</text>

  <rect x="220" y="70" width="660" height="490" rx="10" fill="#f8fafc" stroke="#e2e8f0" stroke-width="1"/>
  <text x="250" y="105" fill="#1e293b" font-size="20" font-weight="bold">Análisis de Calidad SCA</text>
  <text x="250" y="125" fill="#64748b" font-size="13">Puntuación Specialty Coffee Association</text>

  <rect x="250" y="145" width="300" height="400" rx="8" fill="#fff" stroke="#e2e8f0" stroke-width="1"/>
  <text x="270" y="175" fill="#374151" font-size="13" font-weight="600">Lote Asociado</text>
  <rect x="270" y="185" width="260" height="36" rx="6" fill="#f8fafc" stroke="#cbd5e1" stroke-width="1"/>
  <text x="280" y="208" fill="#94a3b8" font-size="13">RT-2026-CAH-001</text>

  <text x="270" y="240" fill="#374151" font-size="12" font-weight="600">Aroma</text>
  <rect x="350" y="230" width="80" height="24" rx="4" fill="#f8fafc" stroke="#cbd5e1" stroke-width="1"/>
  <text x="390" y="247" text-anchor="middle" fill="#374151" font-size="12">8.50</text>

  <text x="270" y="272" fill="#374151" font-size="12" font-weight="600">Sabor</text>
  <rect x="350" y="262" width="80" height="24" rx="4" fill="#f8fafc" stroke="#cbd5e1" stroke-width="1"/>
  <text x="390" y="279" text-anchor="middle" fill="#374151" font-size="12">8.25</text>

  <text x="270" y="304" fill="#374151" font-size="12" font-weight="600">Aftertaste</text>
  <rect x="350" y="294" width="80" height="24" rx="4" fill="#f8fafc" stroke="#cbd5e1" stroke-width="1"/>
  <text x="390" y="311" text-anchor="middle" fill="#374151" font-size="12">8.00</text>

  <text x="270" y="336" fill="#374151" font-size="12" font-weight="600">Acidez</text>
  <rect x="350" y="326" width="80" height="24" rx="4" fill="#f8fafc" stroke="#cbd5e1" stroke-width="1"/>
  <text x="390" y="343" text-anchor="middle" fill="#374151" font-size="12">8.00</text>

  <text x="270" y="368" fill="#374151" font-size="12" font-weight="600">Cuerpo</text>
  <rect x="350" y="358" width="80" height="24" rx="4" fill="#f8fafc" stroke="#cbd5e1" stroke-width="1"/>
  <text x="390" y="375" text-anchor="middle" fill="#374151" font-size="12">7.75</text>

  <text x="270" y="400" fill="#374151" font-size="12" font-weight="600">Uniformidad</text>
  <rect x="350" y="390" width="80" height="24" rx="4" fill="#f8fafc" stroke="#cbd5e1" stroke-width="1"/>
  <text x="390" y="407" text-anchor="middle" fill="#374151" font-size="12">10.00</text>

  <text x="460" y="240" fill="#374151" font-size="12" font-weight="600">Balance</text>
  <rect x="540" y="230" width="80" height="24" rx="4" fill="#f8fafc" stroke="#cbd5e1" stroke-width="1"/>
  <text x="580" y="247" text-anchor="middle" fill="#374151" font-size="12">8.00</text>

  <text x="460" y="272" fill="#374151" font-size="12" font-weight="600">Limpieza</text>
  <rect x="540" y="262" width="80" height="24" rx="4" fill="#f8fafc" stroke="#cbd5e1" stroke-width="1"/>
  <text x="580" y="279" text-anchor="middle" fill="#374151" font-size="12">10.00</text>

  <text x="460" y="304" fill="#374151" font-size="12" font-weight="600">Dulzura</text>
  <rect x="540" y="294" width="80" height="24" rx="4" fill="#f8fafc" stroke="#cbd5e1" stroke-width="1"/>
  <text x="580" y="311" text-anchor="middle" fill="#374151" font-size="12">8.00</text>

  <text x="460" y="336" fill="#374151" font-size="12" font-weight="600">Taza General</text>
  <rect x="540" y="326" width="80" height="24" rx="4" fill="#f8fafc" stroke="#cbd5e1" stroke-width="1"/>
  <text x="580" y="343" text-anchor="middle" fill="#374151" font-size="12">8.50</text>

  <rect x="580" y="145" width="270" height="400" rx="8" fill="#fff" stroke="#e2e8f0" stroke-width="1"/>
  <text x="600" y="175" fill="#374151" font-size="14" font-weight="600">Resultado del Análisis</text>
  <rect x="600" y="195" width="230" height="100" rx="8" fill="#eff6ff" stroke="#bfdbfe" stroke-width="1"/>
  <text x="715" y="230" text-anchor="middle" fill="#1e40af" font-size="36" font-weight="bold">85.00</text>
  <text x="715" y="255" text-anchor="middle" fill="#1e40af" font-size="14">puntos SCA</text>
  <rect x="665" y="265" width="100" height="22" rx="11" fill="#16a34a"/>
  <text x="715" y="280" text-anchor="middle" fill="#fff" font-size="11" font-weight="600">Specialty</text>

  <text x="620" y="320" fill="#64748b" font-size="11">Clasificación según puntuación:</text>
  <rect x="620" y="330" width="200" height="22" rx="4" fill="#dcfce7"/>
  <text x="720" y="345" text-anchor="middle" fill="#16a34a" font-size="11">Specialty: 80+ puntos</text>
  <rect x="620" y="358" width="200" height="22" rx="4" fill="#fef3c7"/>
  <text x="720" y="373" text-anchor="middle" fill="#d97706" font-size="11">Premium: 70-79 puntos</text>
  <rect x="620" y="386" width="200" height="22" rx="4" fill="#fee2e2"/>
  <text x="720" y="401" text-anchor="middle" fill="#ef4444" font-size="11">Comercial: &lt;70 puntos</text>

  <rect x="270" y="440" width="120" height="36" rx="6" fill="#1e40af"/>
  <text x="330" y="463" text-anchor="middle" fill="#fff" font-size="12" font-weight="600">Subir Informe</text>
  <rect x="400" y="440" width="130" height="36" rx="6" fill="#16a34a"/>
  <text x="465" y="463" text-anchor="middle" fill="#fff" font-size="12" font-weight="600">Guardar Análisis</text>

  <rect x="0" y="570" width="900" height="30" fill="#f1f5f9"/>
  <text x="450" y="590" text-anchor="middle" fill="#94a3b8" font-size="11">HU-10 "Registro de análisis de calidad SCA" | Wireframe | RiTech Export System</text>
</svg>