<svg viewBox="0 0 900 600" xmlns="http://www.w3.org/2000/svg" font-family="system-ui, Arial">
  <defs>
    <linearGradient id="hdr" x1="0%" y1="0%" x2="100%" y2="0%">
      <stop offset="0%" style="stop-color:#1e40af"/>
      <stop offset="100%" style="stop-color:#3b82f6"/>
    </linearGradient>
  </defs>
  <rect width="900" height="56" fill="url(#hdr)"/>
  <text x="30" y="36" fill="#fff" font-size="22" font-weight="bold">RiTech</text>
  <text x="120" y="36" fill="#ffffff99" font-size="13">Sistema de Exportación de Café y Cacao</text>
  <circle cx="850" cy="28" r="16" fill="#ffffff22"/>
  <text x="845" y="34" fill="#fff" font-size="14">OP</text>

  <rect x="0" y="56" width="200" height="544" fill="#1e293b"/>
  <text x="20" y="88" fill="#94a3b8" font-size="11" font-weight="600">MENÚ</text>
  <text x="24" y="120" fill="#64748b" font-size="13">👤 Usuarios</text>
  <text x="24" y="150" fill="#64748b" font-size="13">📦 Productos</text>
  <text x="24" y="180" fill="#64748b" font-size="13">📄 Pedidos</text>
  <rect x="10" y="190" width="180" height="34" rx="6" fill="#334155"/>
  <text x="24" y="212" fill="#fff" font-size="13">🚢 Logística</text>
  <text x="24" y="248" fill="#64748b" font-size="13">⚙️ Configuración</text>

  <rect x="220" y="70" width="660" height="490" rx="10" fill="#f8fafc" stroke="#e2e8f0" stroke-width="1"/>
  <text x="250" y="105" fill="#1e293b" font-size="20" font-weight="bold">Gestión de Destino y Condiciones de Embarque</text>
  <text x="250" y="125" fill="#64748b" font-size="13">Puertos, rutas y condiciones de envío por destino</text>

  <rect x="250" y="145" width="200" height="36" rx="6" fill="#1e40af"/>
  <text x="350" y="168" text-anchor="middle" fill="#fff" font-size="13" font-weight="600">+ Nuevo Destino</text>

  <rect x="250" y="200" width="290" height="180" rx="8" fill="#fff" stroke="#e2e8f0" stroke-width="1"/>
  <text x="270" y="225" fill="#374151" font-size="13" font-weight="600">🇩🇪 Hamburg, Alemania</text>
  <text x="270" y="245" fill="#64748b" font-size="11">Puerto: Hamburg (DEHAM)</text>
  <text x="270" y="265" fill="#64748b" font-size="11">Ruta: Cartagena → Hamburg</text>
  <text x="270" y="285" fill="#64748b" font-size="11">Transit time: 18-22 días</text>
  <text x="270" y="305" fill="#64748b" font-size="11">Incoterms: CIF, FOB, EXW</text>
  <text x="270" y="325" fill="#64748b" font-size="11">Transporte: Marítimo FCL/LCL</text>
  <text x="270" y="350" fill="#16a34a" font-size="10" font-weight="600">Activo · 5 pedidos este mes</text>
  <rect x="480" y="220" width="40" height="28" rx="4" fill="#e2e8f0"/>
  <text x="500" y="239" text-anchor="middle" fill="#64748b" font-size="11">✏️</text>

  <rect x="560" y="200" width="290" height="180" rx="8" fill="#fff" stroke="#e2e8f0" stroke-width="1"/>
  <text x="580" y="225" fill="#374151" font-size="13" font-weight="600">🇫🇷 Le Havre, Francia</text>
  <text x="580" y="245" fill="#64748b" font-size="11">Puerto: Le Havre (FRLEH)</text>
  <text x="580" y="265" fill="#64748b" font-size="11">Ruta: Cartagena → Le Havre</text>
  <text x="580" y="285" fill="#64748b" font-size="11">Transit time: 15-18 días</text>
  <text x="580" y="305" fill="#64748b" font-size="11">Incoterms: CIF, FOB</text>
  <text x="580" y="325" fill="#64748b" font-size="11">Transporte: Marítimo FCL</text>
  <text x="580" y="350" fill="#16a34a" font-size="10" font-weight="600">Activo · 3 pedidos este mes</text>
  <rect x="790" y="220" width="40" height="28" rx="4" fill="#e2e8f0"/>
  <text x="810" y="239" text-anchor="middle" fill="#64748b" font-size="11">✏️</text>

  <rect x="250" y="395" width="620" height="150" rx="8" fill="#f8fafc" stroke="#e2e8f0" stroke-width="1"/>
  <text x="270" y="420" fill="#374151" font-size="13" font-weight="600">Condiciones de Embarque</text>
  <text x="270" y="445" fill="#64748b" font-size="11">Puerto origen:</text>
  <rect x="370" y="435" width="150" height="28" rx="4" fill="#fff" stroke="#cbd5e1" stroke-width="1"/>
  <text x="380" y="454" fill="#374151" font-size="11">Cartagena, CO</text>
  <text x="540" y="445" fill="#64748b" font-size="11">Puerto destino:</text>
  <rect x="640" y="435" width="150" height="28" rx="4" fill="#fff" stroke="#cbd5e1" stroke-width="1"/>
  <text x="650" y="454" fill="#374151" font-size="11">Hamburg, DE</text>
  <text x="270" y="480" fill="#64748b" font-size="11">Incoterm:</text>
  <rect x="340" y="470" width="100" height="28" rx="4" fill="#1e40af"/>
  <text x="390" y="489" text-anchor="middle" fill="#fff" font-size="11">CIF</text>
  <rect x="450" y="470" width="100" height="28" rx="4" fill="#e2e8f0"/>
  <text x="500" y="489" text-anchor="middle" fill="#64748b" font-size="11">FOB</text>
  <rect x="560" y="470" width="100" height="28" rx="4" fill="#e2e8f0"/>
  <text x="610" y="489" text-anchor="middle" fill="#64748b" font-size="11">EXW</text>
  <text x="270" y="515" fill="#64748b" font-size="11">Flete estimado:</text>
  <text x="380" y="515" fill="#374151" font-size="12" font-weight="600">€ 1,200 por contenedor 20"</text>
  <text x="580" y="515" fill="#64748b" font-size="11">Seguro:</text>
  <text x="640" y="515" fill="#374151" font-size="12" font-weight="600">0.6% del valor CIF</text>

  <rect x="0" y="570" width="900" height="30" fill="#f1f5f9"/>
  <text x="450" y="590" text-anchor="middle" fill="#94a3b8" font-size="11">HU-28 "Gestión de destino y condiciones de embarque" | Wireframe | RiTech Export System</text>
</svg>